<?xml version="1.0" encoding="UTF-8" standalone="no"?>
<!DOCTYPE svg PUBLIC "-//W3C//DTD SVG 1.1//EN"
 "http://www.w3.org/Graphics/SVG/1.1/DTD/svg11.dtd">
<!-- Generated by graphviz version 14.1.4 (0)
 -->
<!-- Title: StorageHierarchy Pages: 1 -->
<svg width="1431pt" height="884pt"
 viewBox="0.00 0.00 1431.00 884.00" xmlns="http://www.w3.org/2000/svg" xmlns:xlink="http://www.w3.org/1999/xlink">
<g id="graph0" class="graph" transform="scale(1 1) rotate(0) translate(4 879.86)">
<title>StorageHierarchy</title>
<polygon fill="white" stroke="none" points="-4,4 -4,-879.86 1427,-879.86 1427,4 -4,4"/>
<g id="clust1" class="cluster">
<title>cluster_keymanagement</title>
<polygon fill="#f8f0ff" stroke="#9966cc" points="318,-674.77 318,-867.86 441,-867.86 441,-674.77 318,-674.77"/>
<text xml:space="preserve" text-anchor="middle" x="379.5" y="-850.56" font-family="Helvetica,Arial,sans-serif" font-size="14.00">Key Management</text>
</g>
<g id="clust2" class="cluster">
<title>cluster_abc</title>
<polygon fill="#f0f4ff" stroke="#9999cc" points="652,-515.21 652,-634.77 775,-634.77 775,-515.21 652,-515.21"/>
<text xml:space="preserve" text-anchor="middle" x="713.5" y="-617.47" font-family="Helvetica,Arial,sans-serif" font-size="14.00">Abstract Backend</text>
</g>
<g id="clust3" class="cluster">
<title>cluster_domain</title>
<polygon fill="#f5fff0" stroke="#66aa66" points="160,-327.12 160,-475.21 442,-475.21 442,-327.12 160,-327.12"/>
<text xml:space="preserve" text-anchor="middle" x="301" y="-457.91" font-family="Helvetica,Arial,sans-serif" font-size="14.00">Domain Interfaces</text>
</g>
<g id="clust4" class="cluster">
<title>cluster_mixins</title>
<polygon fill="#fffbf0" stroke="#ccaa33" points="148,-167.56 148,-287.12 655,-287.12 655,-167.56 148,-167.56"/>
<text xml:space="preserve" text-anchor="middle" x="401.5" y="-269.82" font-family="Helvetica,Arial,sans-serif" font-size="14.00">Bridge Mixins</text>
</g>
<g id="clust5" class="cluster">
<title>cluster_backends</title>
<polygon fill="#fafafa" stroke="#aaaaaa" points="863,-173.19 863,-466.57 1303,-466.57 1303,-173.19 863,-173.19"/>
<text xml:space="preserve" text-anchor="middle" x="1083" y="-449.27" font-family="Helvetica,Arial,sans-serif" font-size="14.00">Backend Implementations</text>
</g>
<g id="clust6" class="cluster">
<title>cluster_value_typed</title>
<polygon fill="#f0fff4" stroke="#66aa88" points="833,-29.78 833,-105.78 1415,-105.78 1415,-29.78 833,-29.78"/>
<text xml:space="preserve" text-anchor="middle" x="1124" y="-88.48" font-family="Helvetica,Arial,sans-serif" font-size="14.00">Typed Value Classes</text>
</g>
<g id="clust7" class="cluster">
<title>cluster_call_typed</title>
<polygon fill="#f0f4ff" stroke="#6688aa" points="8,-8 8,-127.56 731,-127.56 731,-8 8,-8"/>
<text xml:space="preserve" text-anchor="middle" x="369.5" y="-110.26" font-family="Helvetica,Arial,sans-serif" font-size="14.00">Typed Call Classes</text>
</g>
<!-- KeyManagement -->
<g id="node1" class="node">
<title>KeyManagement</title>
<path fill="#ddb3ff" stroke="#6633aa" d="M337.54,-683.27C337.54,-683.27 420.46,-683.27 420.46,-683.27 426.46,-683.27 432.46,-689.27 432.46,-695.27 432.46,-695.27 432.46,-824.36 432.46,-824.36 432.46,-830.36 426.46,-836.36 420.46,-836.36 420.46,-836.36 337.54,-836.36 337.54,-836.36 331.54,-836.36 325.54,-830.36 325.54,-824.36 325.54,-824.36 325.54,-695.27 325.54,-695.27 325.54,-689.27 331.54,-683.27 337.54,-683.27"/>
<text xml:space="preserve" text-anchor="middle" x="379" y="-817.27" font-family="Helvetica,Arial,sans-serif" font-size="11.00">«ABC»</text>
<text xml:space="preserve" text-anchor="middle" x="379" y="-806.02" font-family="Helvetica,Arial,sans-serif" font-size="11.00">KeyManagement</text>
<polyline fill="none" stroke="#6633aa" points="325.54,-796.58 432.46,-796.58"/>
<text xml:space="preserve" text-anchor="start" x="338.5" y="-777.49" font-family="Helvetica,Arial,sans-serif" font-size="11.00">list()</text>
<text xml:space="preserve" text-anchor="start" x="338.5" y="-766.24" font-family="Helvetica,Arial,sans-serif" font-size="11.00">_evict(key)</text>
<text xml:space="preserve" text-anchor="start" x="338.5" y="-754.99" font-family="Helvetica,Arial,sans-serif" font-size="11.00">_contains(key)</text>
<polyline fill="none" stroke="#6633aa" points="325.54,-745.55 432.46,-745.55"/>
<text xml:space="preserve" text-anchor="start" x="338.5" y="-726.46" font-family="Helvetica,Arial,sans-serif" font-size="11.00">evict(key)</text>
<text xml:space="preserve" text-anchor="start" x="338.5" y="-715.21" font-family="Helvetica,Arial,sans-serif" font-size="11.00">contains(key)</text>
<text xml:space="preserve" text-anchor="start" x="338.5" y="-703.96" font-family="Helvetica,Arial,sans-serif" font-size="11.00">expand(key)</text>
<text xml:space="preserve" text-anchor="start" x="338.5" y="-692.71" font-family="Helvetica,Arial,sans-serif" font-size="11.00">shrink(key)</text>
</g>
<!-- StorageBackend -->
<g id="node2" class="node">
<title>StorageBackend</title>
<path fill="#b3d9ff" stroke="#3366aa" d="M672.91,-523.71C672.91,-523.71 755.09,-523.71 755.09,-523.71 761.09,-523.71 767.09,-529.71 767.09,-535.71 767.09,-535.71 767.09,-591.27 767.09,-591.27 767.09,-597.27 761.09,-603.27 755.09,-603.27 755.09,-603.27 672.91,-603.27 672.91,-603.27 666.91,-603.27 660.91,-597.27 660.91,-591.27 660.91,-591.27 660.91,-535.71 660.91,-535.71 660.91,-529.71 666.91,-523.71 672.91,-523.71"/>
<text xml:space="preserve" text-anchor="middle" x="714" y="-584.18" font-family="Helvetica,Arial,sans-serif" font-size="11.00">«ABC»</text>
<text xml:space="preserve" text-anchor="middle" x="714" y="-572.93" font-family="Helvetica,Arial,sans-serif" font-size="11.00">StorageBackend</text>
<polyline fill="none" stroke="#3366aa" points="660.91,-563.49 767.09,-563.49"/>
<text xml:space="preserve" text-anchor="start" x="673.88" y="-544.4" font-family="Helvetica,Arial,sans-serif" font-size="11.00">put(value, key)</text>
<text xml:space="preserve" text-anchor="start" x="673.88" y="-533.15" font-family="Helvetica,Arial,sans-serif" font-size="11.00">get(key)</text>
</g>
<!-- KeyManagement&#45;&gt;StorageBackend -->
<g id="edge1" class="edge">
<title>KeyManagement&#45;&gt;StorageBackend</title>
<path fill="none" stroke="black" d="M405.73,-682.96C405.73,-635.65 405.73,-584 405.73,-584 405.73,-584 649.14,-584 649.14,-584"/>
<polygon fill="none" stroke="black" points="649.14,-587.5 659.14,-584 649.14,-580.5 649.14,-587.5"/>
</g>
<!-- ValueStorage -->
<g id="node3" class="node">
<title>ValueStorage</title>
<path fill="#c8f5c0" stroke="#33aa33" d="M336.04,-349.88C336.04,-349.88 421.96,-349.88 421.96,-349.88 427.96,-349.88 433.96,-355.88 433.96,-361.88 433.96,-361.88 433.96,-417.44 433.96,-417.44 433.96,-423.44 427.96,-429.44 421.96,-429.44 421.96,-429.44 336.04,-429.44 336.04,-429.44 330.04,-429.44 324.04,-423.44 324.04,-417.44 324.04,-417.44 324.04,-361.88 324.04,-361.88 324.04,-355.88 330.04,-349.88 336.04,-349.88"/>
<text xml:space="preserve" text-anchor="middle" x="379" y="-410.35" font-family="Helvetica,Arial,sans-serif" font-size="11.00">«ABC»</text>
<text xml:space="preserve" text-anchor="middle" x="379" y="-399.1" font-family="Helvetica,Arial,sans-serif" font-size="11.00">ValueStorage</text>
<polyline fill="none" stroke="#33aa33" points="324.04,-389.66 433.96,-389.66"/>
<text xml:space="preserve" text-anchor="start" x="337" y="-370.57" font-family="Helvetica,Arial,sans-serif" font-size="11.00">save(value, key?)</text>
<text xml:space="preserve" text-anchor="start" x="337" y="-359.32" font-family="Helvetica,Arial,sans-serif" font-size="11.00">load(key)</text>
</g>
<!-- KeyManagement&#45;&gt;ValueStorage -->
<g id="edge2" class="edge">
<title>KeyManagement&#45;&gt;ValueStorage</title>
<path fill="none" stroke="black" d="M379,-683.12C379,-683.12 379,-441.24 379,-441.24"/>
<polygon fill="none" stroke="black" points="382.5,-441.24 379,-431.24 375.5,-441.24 382.5,-441.24"/>
</g>
<!-- CallStorage -->
<g id="node4" class="node">
<title>CallStorage</title>
<path fill="#c8f5c0" stroke="#33aa33" d="M180.29,-335.62C180.29,-335.62 261.71,-335.62 261.71,-335.62 267.71,-335.62 273.71,-341.62 273.71,-347.62 273.71,-347.62 273.71,-431.71 273.71,-431.71 273.71,-437.71 267.71,-443.71 261.71,-443.71 261.71,-443.71 180.29,-443.71 180.29,-443.71 174.29,-443.71 168.29,-437.71 168.29,-431.71 168.29,-431.71 168.29,-347.62 168.29,-347.62 168.29,-341.62 174.29,-335.62 180.29,-335.62"/>
<text xml:space="preserve" text-anchor="middle" x="221" y="-424.62" font-family="Helvetica,Arial,sans-serif" font-size="11.00">«ABC»</text>
<text xml:space="preserve" text-anchor="middle" x="221" y="-413.37" font-family="Helvetica,Arial,sans-serif" font-size="11.00">CallStorage</text>
<polyline fill="none" stroke="#33aa33" points="168.29,-403.93 273.71,-403.93"/>
<text xml:space="preserve" text-anchor="start" x="181.25" y="-384.84" font-family="Helvetica,Arial,sans-serif" font-size="11.00">save(call)</text>
<text xml:space="preserve" text-anchor="start" x="181.25" y="-373.59" font-family="Helvetica,Arial,sans-serif" font-size="11.00">load(key) → Call</text>
<polyline fill="none" stroke="#33aa33" points="168.29,-364.15 273.71,-364.15"/>
<text xml:space="preserve" text-anchor="start" x="181.25" y="-345.06" font-family="Helvetica,Arial,sans-serif" font-size="11.00">transform(func)</text>
</g>
<!-- KeyManagement&#45;&gt;CallStorage -->
<g id="edge3" class="edge">
<title>KeyManagement&#45;&gt;CallStorage</title>
<path fill="none" stroke="black" d="M352.27,-682.8C352.27,-588.17 352.27,-440 352.27,-440 352.27,-440 285.53,-440 285.53,-440"/>
<polygon fill="none" stroke="black" points="285.53,-436.5 275.53,-440 285.53,-443.5 285.53,-436.5"/>
</g>
<!-- Sql -->
<g id="node21" class="node">
<title>Sql</title>
<path fill="#c8d8f5" stroke="#3366aa" d="M28.41,-16.5C28.41,-16.5 131.59,-16.5 131.59,-16.5 137.59,-16.5 143.59,-22.5 143.59,-28.5 143.59,-28.5 143.59,-84.06 143.59,-84.06 143.59,-90.06 137.59,-96.06 131.59,-96.06 131.59,-96.06 28.41,-96.06 28.41,-96.06 22.41,-96.06 16.41,-90.06 16.41,-84.06 16.41,-84.06 16.41,-28.5 16.41,-28.5 16.41,-22.5 22.41,-16.5 28.41,-16.5"/>
<text xml:space="preserve" text-anchor="middle" x="80" y="-76.97" font-family="Helvetica,Arial,sans-serif" font-size="11.00">Sql</text>
<polyline fill="none" stroke="#3366aa" points="16.41,-67.53 143.59,-67.53"/>
<text xml:space="preserve" text-anchor="start" x="29.38" y="-48.44" font-family="Helvetica,Arial,sans-serif" font-size="11.00">url: str</text>
<text xml:space="preserve" text-anchor="start" x="29.38" y="-37.19" font-family="Helvetica,Arial,sans-serif" font-size="11.00">SQLAlchemy&#45;backed</text>
<text xml:space="preserve" text-anchor="start" x="29.38" y="-25.94" font-family="Helvetica,Arial,sans-serif" font-size="11.00">SQL&#45;native query()</text>
</g>
<!-- KeyManagement&#45;&gt;Sql -->
<g id="edge31" class="edge">
<title>KeyManagement&#45;&gt;Sql</title>
<path fill="none" stroke="black" stroke-dasharray="5,2" d="M325.05,-760C233.79,-760 58.81,-760 58.81,-760 58.81,-760 58.81,-107.9 58.81,-107.9"/>
<polygon fill="none" stroke="black" points="62.31,-107.9 58.81,-97.9 55.31,-107.9 62.31,-107.9"/>
</g>
<!-- ValueMixin -->
<g id="node5" class="node">
<title>ValueMixin</title>
<path fill="#ffeeaa" stroke="#aa8800" d="M347.92,-181.69C347.92,-181.69 454.08,-181.69 454.08,-181.69 460.08,-181.69 466.08,-187.69 466.08,-193.69 466.08,-193.69 466.08,-238 466.08,-238 466.08,-244 460.08,-250 454.08,-250 454.08,-250 347.92,-250 347.92,-250 341.92,-250 335.92,-244 335.92,-238 335.92,-238 335.92,-193.69 335.92,-193.69 335.92,-187.69 341.92,-181.69 347.92,-181.69"/>
<text xml:space="preserve" text-anchor="middle" x="401" y="-230.91" font-family="Helvetica,Arial,sans-serif" font-size="11.00">ValueMixin</text>
<polyline fill="none" stroke="#aa8800" points="335.92,-221.47 466.08,-221.47"/>
<text xml:space="preserve" text-anchor="start" x="348.88" y="-202.38" font-family="Helvetica,Arial,sans-serif" font-size="11.00">Implements save/load</text>
<text xml:space="preserve" text-anchor="start" x="348.88" y="-191.12" font-family="Helvetica,Arial,sans-serif" font-size="11.00">using put/get</text>
</g>
<!-- StorageBackend&#45;&gt;ValueMixin -->
<g id="edge5" class="edge">
<title>StorageBackend&#45;&gt;ValueMixin</title>
<path fill="none" stroke="black" d="M660.58,-543C583.45,-543 450.02,-543 450.02,-543 450.02,-543 450.02,-261.75 450.02,-261.75"/>
<polygon fill="none" stroke="black" points="453.52,-261.75 450.02,-251.75 446.52,-261.75 453.52,-261.75"/>
</g>
<!-- CallMixin -->
<g id="node6" class="node">
<title>CallMixin</title>
<path fill="#ffeeaa" stroke="#aa8800" d="M167.92,-176.06C167.92,-176.06 274.08,-176.06 274.08,-176.06 280.08,-176.06 286.08,-182.06 286.08,-188.06 286.08,-188.06 286.08,-243.62 286.08,-243.62 286.08,-249.62 280.08,-255.62 274.08,-255.62 274.08,-255.62 167.92,-255.62 167.92,-255.62 161.92,-255.62 155.92,-249.62 155.92,-243.62 155.92,-243.62 155.92,-188.06 155.92,-188.06 155.92,-182.06 161.92,-176.06 167.92,-176.06"/>
<text xml:space="preserve" text-anchor="middle" x="221" y="-236.53" font-family="Helvetica,Arial,sans-serif" font-size="11.00">CallMixin</text>
<polyline fill="none" stroke="#aa8800" points="155.92,-227.09 286.08,-227.09"/>
<text xml:space="preserve" text-anchor="start" x="168.88" y="-208" font-family="Helvetica,Arial,sans-serif" font-size="11.00">Implements save/load</text>
<text xml:space="preserve" text-anchor="start" x="168.88" y="-196.75" font-family="Helvetica,Arial,sans-serif" font-size="11.00">using put/get</text>
<text xml:space="preserve" text-anchor="start" x="168.88" y="-185.5" font-family="Helvetica,Arial,sans-serif" font-size="11.00">query(template)</text>
</g>
<!-- StorageBackend&#45;&gt;CallMixin -->
<g id="edge7" class="edge">
<title>StorageBackend&#45;&gt;CallMixin</title>
<path fill="none" stroke="black" d="M660.77,-563C544.85,-563 279.9,-563 279.9,-563 279.9,-563 279.9,-267.52 279.9,-267.52"/>
<polygon fill="none" stroke="black" points="283.4,-267.52 279.9,-257.52 276.4,-267.52 283.4,-267.52"/>
</g>
<!-- DestructuringMixin -->
<g id="node7" class="node">
<title>DestructuringMixin</title>
<path fill="#ffe0aa" stroke="#cc7700" d="M528.54,-176.06C528.54,-176.06 635.46,-176.06 635.46,-176.06 641.46,-176.06 647.46,-182.06 647.46,-188.06 647.46,-188.06 647.46,-243.62 647.46,-243.62 647.46,-249.62 641.46,-255.62 635.46,-255.62 635.46,-255.62 528.54,-255.62 528.54,-255.62 522.54,-255.62 516.54,-249.62 516.54,-243.62 516.54,-243.62 516.54,-188.06 516.54,-188.06 516.54,-182.06 522.54,-176.06 528.54,-176.06"/>
<text xml:space="preserve" text-anchor="middle" x="582" y="-236.53" font-family="Helvetica,Arial,sans-serif" font-size="11.00">DestructuringMixin</text>
<polyline fill="none" stroke="#cc7700" points="516.54,-227.09 647.46,-227.09"/>
<text xml:space="preserve" text-anchor="start" x="529.5" y="-208" font-family="Helvetica,Arial,sans-serif" font-size="11.00">put(): splits collections</text>
<text xml:space="preserve" text-anchor="start" x="529.5" y="-196.75" font-family="Helvetica,Arial,sans-serif" font-size="11.00">get(): reassembles</text>
<text xml:space="preserve" text-anchor="start" x="529.5" y="-185.5" font-family="Helvetica,Arial,sans-serif" font-size="11.00">remaining_depth: int</text>
</g>
<!-- StorageBackend&#45;&gt;DestructuringMixin -->
<g id="edge8" class="edge">
<title>StorageBackend&#45;&gt;DestructuringMixin</title>
<path fill="none" stroke="black" d="M702.61,-523.29C702.61,-431.82 702.61,-216 702.61,-216 702.61,-216 659.47,-216 659.47,-216"/>
<polygon fill="none" stroke="black" points="659.47,-212.5 649.47,-216 659.47,-219.5 659.47,-212.5"/>
</g>
<!-- MemoryBackend -->
<g id="node8" class="node">
<title>MemoryBackend</title>
<path fill="white" stroke="#888888" d="M1200.54,-361.13C1200.54,-361.13 1283.46,-361.13 1283.46,-361.13 1289.46,-361.13 1295.46,-367.13 1295.46,-373.13 1295.46,-373.13 1295.46,-406.19 1295.46,-406.19 1295.46,-412.19 1289.46,-418.19 1283.46,-418.19 1283.46,-418.19 1200.54,-418.19 1200.54,-418.19 1194.54,-418.19 1188.54,-412.19 1188.54,-406.19 1188.54,-406.19 1188.54,-373.13 1188.54,-373.13 1188.54,-367.13 1194.54,-361.13 1200.54,-361.13"/>
<text xml:space="preserve" text-anchor="middle" x="1242" y="-399.1" font-family="Helvetica,Arial,sans-serif" font-size="11.00">MemoryBackend</text>
<polyline fill="none" stroke="#888888" points="1188.54,-389.66 1295.46,-389.66"/>
<text xml:space="preserve" text-anchor="start" x="1201.5" y="-370.57" font-family="Helvetica,Arial,sans-serif" font-size="11.00">storage: dict</text>
</g>
<!-- StorageBackend&#45;&gt;MemoryBackend -->
<g id="edge9" class="edge">
<title>StorageBackend&#45;&gt;MemoryBackend</title>
<path fill="none" stroke="black" d="M767.53,-577C901.77,-577 1242,-577 1242,-577 1242,-577 1242,-430.04 1242,-430.04"/>
<polygon fill="none" stroke="black" points="1245.5,-430.04 1242,-420.04 1238.5,-430.04 1245.5,-430.04"/>
</g>
<!-- VoidBackend -->
<g id="node9" class="node">
<title>VoidBackend</title>
<path fill="white" stroke="#888888" d="M1053.41,-361.13C1053.41,-361.13 1126.59,-361.13 1126.59,-361.13 1132.59,-361.13 1138.59,-367.13 1138.59,-373.13 1138.59,-373.13 1138.59,-406.19 1138.59,-406.19 1138.59,-412.19 1132.59,-418.19 1126.59,-418.19 1126.59,-418.19 1053.41,-418.19 1053.41,-418.19 1047.41,-418.19 1041.41,-412.19 1041.41,-406.19 1041.41,-406.19 1041.41,-373.13 1041.41,-373.13 1041.41,-367.13 1047.41,-361.13 1053.41,-361.13"/>
<text xml:space="preserve" text-anchor="middle" x="1090" y="-399.1" font-family="Helvetica,Arial,sans-serif" font-size="11.00">VoidBackend</text>
<polyline fill="none" stroke="#888888" points="1041.41,-389.66 1138.59,-389.66"/>
<text xml:space="preserve" text-anchor="start" x="1054.38" y="-370.57" font-family="Helvetica,Arial,sans-serif" font-size="11.00">no&#45;op backend</text>
</g>
<!-- StorageBackend&#45;&gt;VoidBackend -->
<g id="edge10" class="edge">
<title>StorageBackend&#45;&gt;VoidBackend</title>
<path fill="none" stroke="black" d="M767.47,-550C871.28,-550 1090,-550 1090,-550 1090,-550 1090,-429.84 1090,-429.84"/>
<polygon fill="none" stroke="black" points="1093.5,-429.84 1090,-419.84 1086.5,-429.84 1093.5,-429.84"/>
</g>
<!-- FileStorage -->
<g id="node10" class="node">
<title>FileStorage</title>
<path fill="#f0f0f0" stroke="#888888" stroke-dasharray="5,2" d="M882.79,-344.26C882.79,-344.26 979.21,-344.26 979.21,-344.26 985.21,-344.26 991.21,-350.26 991.21,-356.26 991.21,-356.26 991.21,-423.07 991.21,-423.07 991.21,-429.07 985.21,-435.07 979.21,-435.07 979.21,-435.07 882.79,-435.07 882.79,-435.07 876.79,-435.07 870.79,-429.07 870.79,-423.07 870.79,-423.07 870.79,-356.26 870.79,-356.26 870.79,-350.26 876.79,-344.26 882.79,-344.26"/>
<text xml:space="preserve" text-anchor="middle" x="931" y="-415.98" font-family="Helvetica,Arial,sans-serif" font-size="11.00">«abstract»</text>
<text xml:space="preserve" text-anchor="middle" x="931" y="-404.73" font-family="Helvetica,Arial,sans-serif" font-size="11.00">FileStorage</text>
<polyline fill="none" stroke="#888888" stroke-dasharray="5,2" points="870.79,-395.29 991.21,-395.29"/>
<text xml:space="preserve" text-anchor="start" x="883.75" y="-376.2" font-family="Helvetica,Arial,sans-serif" font-size="11.00">root: Path</text>
<text xml:space="preserve" text-anchor="start" x="883.75" y="-364.95" font-family="Helvetica,Arial,sans-serif" font-size="11.00">_to_file(value, path)</text>
<text xml:space="preserve" text-anchor="start" x="883.75" y="-353.7" font-family="Helvetica,Arial,sans-serif" font-size="11.00">_from_file(path)</text>
</g>
<!-- StorageBackend&#45;&gt;FileStorage -->
<g id="edge11" class="edge">
<title>StorageBackend&#45;&gt;FileStorage</title>
<path fill="none" stroke="black" d="M745.27,-523.25C745.27,-472 745.27,-390 745.27,-390 745.27,-390 858.93,-390 858.93,-390"/>
<polygon fill="none" stroke="black" points="858.93,-393.5 868.93,-390 858.93,-386.5 858.93,-393.5"/>
</g>
<!-- ValueStorage&#45;&gt;ValueMixin -->
<g id="edge4" class="edge">
<title>ValueStorage&#45;&gt;ValueMixin</title>
<path fill="none" stroke="black" d="M384.94,-349.79C384.94,-349.79 384.94,-261.76 384.94,-261.76"/>
<polygon fill="none" stroke="black" points="388.44,-261.76 384.94,-251.76 381.44,-261.76 388.44,-261.76"/>
</g>
<!-- CallStorage&#45;&gt;CallMixin -->
<g id="edge6" class="edge">
<title>CallStorage&#45;&gt;CallMixin</title>
<path fill="none" stroke="black" d="M221,-335.14C221,-335.14 221,-267.61 221,-267.61"/>
<polygon fill="none" stroke="black" points="224.5,-267.61 221,-257.61 217.5,-267.61 224.5,-267.61"/>
</g>
<!-- CallStorage&#45;&gt;Sql -->
<g id="edge30" class="edge">
<title>CallStorage&#45;&gt;Sql</title>
<path fill="none" stroke="black" d="M168.1,-390C136.01,-390 101.19,-390 101.19,-390 101.19,-390 101.19,-108.05 101.19,-108.05"/>
<polygon fill="none" stroke="black" points="104.7,-108.05 101.2,-98.05 97.7,-108.05 104.7,-108.05"/>
</g>
<!-- ValueMemory -->
<g id="node13" class="node">
<title>ValueMemory</title>
<path fill="#c8f5d8" stroke="#33aa66" d="M1327.04,-38.28C1327.04,-38.28 1394.96,-38.28 1394.96,-38.28 1400.96,-38.28 1406.96,-44.28 1406.96,-50.28 1406.96,-50.28 1406.96,-62.28 1406.96,-62.28 1406.96,-68.28 1400.96,-74.28 1394.96,-74.28 1394.96,-74.28 1327.04,-74.28 1327.04,-74.28 1321.04,-74.28 1315.04,-68.28 1315.04,-62.28 1315.04,-62.28 1315.04,-50.28 1315.04,-50.28 1315.04,-44.28 1321.04,-38.28 1327.04,-38.28"/>
<text xml:space="preserve" text-anchor="start" x="1328" y="-51.69" font-family="Helvetica,Arial,sans-serif" font-size="11.00">ValueMemory</text>
</g>
<!-- ValueMixin&#45;&gt;ValueMemory -->
<g id="edge14" class="edge">
<title>ValueMixin&#45;&gt;ValueMemory</title>
<path fill="none" stroke="black" d="M461.99,-181.33C461.99,-173.78 461.99,-168 461.99,-168 461.99,-168 1345.68,-168 1345.68,-168 1345.68,-168 1345.68,-86.24 1345.68,-86.24"/>
<polygon fill="none" stroke="black" points="1349.18,-86.24 1345.68,-76.24 1342.18,-86.24 1349.18,-86.24"/>
</g>
<!-- ValueVoid -->
<g id="node14" class="node">
<title>ValueVoid</title>
<path fill="#c8f5d8" stroke="#33aa66" d="M1203.04,-38.28C1203.04,-38.28 1252.96,-38.28 1252.96,-38.28 1258.96,-38.28 1264.96,-44.28 1264.96,-50.28 1264.96,-50.28 1264.96,-62.28 1264.96,-62.28 1264.96,-68.28 1258.96,-74.28 1252.96,-74.28 1252.96,-74.28 1203.04,-74.28 1203.04,-74.28 1197.04,-74.28 1191.04,-68.28 1191.04,-62.28 1191.04,-62.28 1191.04,-50.28 1191.04,-50.28 1191.04,-44.28 1197.04,-38.28 1203.04,-38.28"/>
<text xml:space="preserve" text-anchor="start" x="1204" y="-51.69" font-family="Helvetica,Arial,sans-serif" font-size="11.00">ValueVoid</text>
</g>
<!-- ValueMixin&#45;&gt;ValueVoid -->
<g id="edge16" class="edge">
<title>ValueMixin&#45;&gt;ValueVoid</title>
<path fill="none" stroke="black" d="M457.9,-181.26C457.9,-158.16 457.9,-132 457.9,-132 457.9,-132 1215.68,-132 1215.68,-132 1215.68,-132 1215.68,-86.12 1215.68,-86.12"/>
<polygon fill="none" stroke="black" points="1219.18,-86.12 1215.68,-76.12 1212.18,-86.12 1219.18,-86.12"/>
</g>
<!-- ValuePickleFile -->
<g id="node15" class="node">
<title>ValuePickleFile</title>
<path fill="#c8f5d8" stroke="#33aa66" d="M1055.04,-38.28C1055.04,-38.28 1128.96,-38.28 1128.96,-38.28 1134.96,-38.28 1140.96,-44.28 1140.96,-50.28 1140.96,-50.28 1140.96,-62.28 1140.96,-62.28 1140.96,-68.28 1134.96,-74.28 1128.96,-74.28 1128.96,-74.28 1055.04,-74.28 1055.04,-74.28 1049.04,-74.28 1043.04,-68.28 1043.04,-62.28 1043.04,-62.28 1043.04,-50.28 1043.04,-50.28 1043.04,-44.28 1049.04,-38.28 1055.04,-38.28"/>
<text xml:space="preserve" text-anchor="start" x="1056" y="-51.69" font-family="Helvetica,Arial,sans-serif" font-size="11.00">ValuePickleFile</text>
</g>
<!-- ValueMixin&#45;&gt;ValuePickleFile -->
<g id="edge18" class="edge">
<title>ValueMixin&#45;&gt;ValuePickleFile</title>
<path fill="none" stroke="black" d="M453.81,-181.24C453.81,-155.57 453.81,-125 453.81,-125 453.81,-125 1055.25,-125 1055.25,-125 1055.25,-125 1055.25,-86.21 1055.25,-86.21"/>
<polygon fill="none" stroke="black" points="1058.75,-86.21 1055.25,-76.21 1051.75,-86.21 1058.75,-86.21"/>
</g>
<!-- ValueBagOfHoldingH5File -->
<g id="node16" class="node">
<title>ValueBagOfHoldingH5File</title>
<path fill="#c8f5d8" stroke="#33aa66" d="M853.04,-38.28C853.04,-38.28 980.96,-38.28 980.96,-38.28 986.96,-38.28 992.96,-44.28 992.96,-50.28 992.96,-50.28 992.96,-62.28 992.96,-62.28 992.96,-68.28 986.96,-74.28 980.96,-74.28 980.96,-74.28 853.04,-74.28 853.04,-74.28 847.04,-74.28 841.04,-68.28 841.04,-62.28 841.04,-62.28 841.04,-50.28 841.04,-50.28 841.04,-44.28 847.04,-38.28 853.04,-38.28"/>
<text xml:space="preserve" text-anchor="start" x="854" y="-51.69" font-family="Helvetica,Arial,sans-serif" font-size="11.00">ValueBagOfHoldingH5File</text>
</g>
<!-- ValueMixin&#45;&gt;ValueBagOfHoldingH5File -->
<g id="edge20" class="edge">
<title>ValueMixin&#45;&gt;ValueBagOfHoldingH5File</title>
<path fill="none" stroke="black" d="M449.72,-181.35C449.72,-153.18 449.72,-118 449.72,-118 449.72,-118 855.91,-118 855.91,-118 855.91,-118 855.91,-85.98 855.91,-85.98"/>
<polygon fill="none" stroke="black" points="859.42,-85.98 855.92,-75.98 852.42,-85.98 859.42,-85.98"/>
</g>
<!-- CallMemory -->
<g id="node17" class="node">
<title>CallMemory</title>
<path fill="#c8d8f5" stroke="#3366aa" d="M320.54,-38.28C320.54,-38.28 379.46,-38.28 379.46,-38.28 385.46,-38.28 391.46,-44.28 391.46,-50.28 391.46,-50.28 391.46,-62.28 391.46,-62.28 391.46,-68.28 385.46,-74.28 379.46,-74.28 379.46,-74.28 320.54,-74.28 320.54,-74.28 314.54,-74.28 308.54,-68.28 308.54,-62.28 308.54,-62.28 308.54,-50.28 308.54,-50.28 308.54,-44.28 314.54,-38.28 320.54,-38.28"/>
<text xml:space="preserve" text-anchor="start" x="321.5" y="-51.69" font-family="Helvetica,Arial,sans-serif" font-size="11.00">CallMemory</text>
</g>
<!-- CallMixin&#45;&gt;CallMemory -->
<g id="edge22" class="edge">
<title>CallMixin&#45;&gt;CallMemory</title>
<path fill="none" stroke="black" d="M279.18,-175.92C279.18,-128.57 279.18,-56 279.18,-56 279.18,-56 296.88,-56 296.88,-56"/>
<polygon fill="none" stroke="black" points="296.88,-59.5 306.88,-56 296.88,-52.5 296.88,-59.5"/>
</g>
<!-- CallVoid -->
<g id="node18" class="node">
<title>CallVoid</title>
<path fill="#c8d8f5" stroke="#3366aa" d="M205.54,-38.28C205.54,-38.28 246.46,-38.28 246.46,-38.28 252.46,-38.28 258.46,-44.28 258.46,-50.28 258.46,-50.28 258.46,-62.28 258.46,-62.28 258.46,-68.28 252.46,-74.28 246.46,-74.28 246.46,-74.28 205.54,-74.28 205.54,-74.28 199.54,-74.28 193.54,-68.28 193.54,-62.28 193.54,-62.28 193.54,-50.28 193.54,-50.28 193.54,-44.28 199.54,-38.28 205.54,-38.28"/>
<text xml:space="preserve" text-anchor="start" x="206.5" y="-51.69" font-family="Helvetica,Arial,sans-serif" font-size="11.00">CallVoid</text>
</g>
<!-- CallMixin&#45;&gt;CallVoid -->
<g id="edge24" class="edge">
<title>CallMixin&#45;&gt;CallVoid</title>
<path fill="none" stroke="black" d="M215.18,-175.58C215.18,-175.58 215.18,-85.94 215.18,-85.94"/>
<polygon fill="none" stroke="black" points="218.68,-85.94 215.18,-75.94 211.68,-85.94 218.68,-85.94"/>
</g>
<!-- CallPickleFile -->
<g id="node19" class="node">
<title>CallPickleFile</title>
<path fill="#c8d8f5" stroke="#3366aa" d="M646.54,-38.28C646.54,-38.28 711.46,-38.28 711.46,-38.28 717.46,-38.28 723.46,-44.28 723.46,-50.28 723.46,-50.28 723.46,-62.28 723.46,-62.28 723.46,-68.28 717.46,-74.28 711.46,-74.28 711.46,-74.28 646.54,-74.28 646.54,-74.28 640.54,-74.28 634.54,-68.28 634.54,-62.28 634.54,-62.28 634.54,-50.28 634.54,-50.28 634.54,-44.28 640.54,-38.28 646.54,-38.28"/>
<text xml:space="preserve" text-anchor="start" x="647.5" y="-51.69" font-family="Helvetica,Arial,sans-serif" font-size="11.00">CallPickleFile</text>
</g>
<!-- CallMixin&#45;&gt;CallPickleFile -->
<g id="edge26" class="edge">
<title>CallMixin&#45;&gt;CallPickleFile</title>
<path fill="none" stroke="black" d="M272.27,-175.61C272.27,-146.04 272.27,-111 272.27,-111 272.27,-111 641,-111 641,-111 641,-111 641,-86.01 641,-86.01"/>
<polygon fill="none" stroke="black" points="644.5,-86.01 641,-76.01 637.5,-86.01 644.5,-86.01"/>
</g>
<!-- CallBagOfHoldingH5File -->
<g id="node20" class="node">
<title>CallBagOfHoldingH5File</title>
<path fill="#c8d8f5" stroke="#3366aa" d="M453.54,-38.28C453.54,-38.28 572.46,-38.28 572.46,-38.28 578.46,-38.28 584.46,-44.28 584.46,-50.28 584.46,-50.28 584.46,-62.28 584.46,-62.28 584.46,-68.28 578.46,-74.28 572.46,-74.28 572.46,-74.28 453.54,-74.28 453.54,-74.28 447.54,-74.28 441.54,-68.28 441.54,-62.28 441.54,-62.28 441.54,-50.28 441.54,-50.28 441.54,-44.28 447.54,-38.28 453.54,-38.28"/>
<text xml:space="preserve" text-anchor="start" x="454.5" y="-51.69" font-family="Helvetica,Arial,sans-serif" font-size="11.00">CallBagOfHoldingH5File</text>
</g>
<!-- CallMixin&#45;&gt;CallBagOfHoldingH5File -->
<g id="edge28" class="edge">
<title>CallMixin&#45;&gt;CallBagOfHoldingH5File</title>
<path fill="none" stroke="black" d="M265.37,-175.78C265.37,-143.69 265.37,-104 265.37,-104 265.37,-104 445.63,-104 445.63,-104 445.63,-104 445.63,-86.11 445.63,-86.11"/>
<polygon fill="none" stroke="black" points="449.13,-86.11 445.63,-76.11 442.13,-86.11 449.13,-86.11"/>
</g>
<!-- MemoryBackend&#45;&gt;ValueMemory -->
<g id="edge15" class="edge">
<title>MemoryBackend&#45;&gt;ValueMemory</title>
<path fill="none" stroke="black" d="M1295.86,-390C1333.23,-390 1376.32,-390 1376.32,-390 1376.32,-390 1376.32,-86.21 1376.32,-86.21"/>
<polygon fill="none" stroke="black" points="1379.82,-86.21 1376.32,-76.21 1372.82,-86.21 1379.82,-86.21"/>
</g>
<!-- MemoryBackend&#45;&gt;CallMemory -->
<g id="edge23" class="edge">
<title>MemoryBackend&#45;&gt;CallMemory</title>
<path fill="none" stroke="black" d="M1241.62,-360.78C1241.62,-349.4 1241.62,-339 1241.62,-339 1241.62,-339 329.98,-339 329.98,-339 329.98,-339 329.98,-85.91 329.98,-85.91"/>
<polygon fill="none" stroke="black" points="333.48,-85.91 329.98,-75.91 326.48,-85.91 333.48,-85.91"/>
</g>
<!-- VoidBackend&#45;&gt;ValueVoid -->
<g id="edge17" class="edge">
<title>VoidBackend&#45;&gt;ValueVoid</title>
<path fill="none" stroke="black" d="M1100.68,-361.03C1100.68,-295.45 1100.68,-140 1100.68,-140 1100.68,-140 1240.32,-140 1240.32,-140 1240.32,-140 1240.32,-85.96 1240.32,-85.96"/>
<polygon fill="none" stroke="black" points="1243.82,-85.96 1240.32,-75.96 1236.82,-85.96 1243.82,-85.96"/>
</g>
<!-- VoidBackend&#45;&gt;CallVoid -->
<g id="edge25" class="edge">
<title>VoidBackend&#45;&gt;CallVoid</title>
<path fill="none" stroke="black" d="M1084.07,-360.7C1084.07,-299.17 1084.07,-161 1084.07,-161 1084.07,-161 236.82,-161 236.82,-161 236.82,-161 236.82,-86.03 236.82,-86.03"/>
<polygon fill="none" stroke="black" points="240.32,-86.03 236.82,-76.03 233.32,-86.03 240.32,-86.03"/>
</g>
<!-- PickleFileBackend -->
<g id="node11" class="node">
<title>PickleFileBackend</title>
<path fill="white" stroke="#888888" d="M1129.29,-181.69C1129.29,-181.69 1282.71,-181.69 1282.71,-181.69 1288.71,-181.69 1294.71,-187.69 1294.71,-193.69 1294.71,-193.69 1294.71,-238 1294.71,-238 1294.71,-244 1288.71,-250 1282.71,-250 1282.71,-250 1129.29,-250 1129.29,-250 1123.29,-250 1117.29,-244 1117.29,-238 1117.29,-238 1117.29,-193.69 1117.29,-193.69 1117.29,-187.69 1123.29,-181.69 1129.29,-181.69"/>
<text xml:space="preserve" text-anchor="middle" x="1206" y="-230.91" font-family="Helvetica,Arial,sans-serif" font-size="11.00">PickleFileBackend</text>
<polyline fill="none" stroke="#888888" points="1117.29,-221.47 1294.71,-221.47"/>
<text xml:space="preserve" text-anchor="start" x="1130.25" y="-202.38" font-family="Helvetica,Arial,sans-serif" font-size="11.00">serializer (pickle/cloudpickle/dill)</text>
<text xml:space="preserve" text-anchor="start" x="1130.25" y="-191.12" font-family="Helvetica,Arial,sans-serif" font-size="11.00">secret_key, compress</text>
</g>
<!-- FileStorage&#45;&gt;PickleFileBackend -->
<g id="edge12" class="edge">
<title>FileStorage&#45;&gt;PickleFileBackend</title>
<path fill="none" stroke="black" d="M991.69,-352C1049.56,-352 1127.94,-352 1127.94,-352 1127.94,-352 1127.94,-261.71 1127.94,-261.71"/>
<polygon fill="none" stroke="black" points="1131.44,-261.71 1127.94,-251.71 1124.44,-261.71 1131.44,-261.71"/>
</g>
<!-- BagOfHoldingH5FileBackend -->
<g id="node12" class="node">
<title>BagOfHoldingH5FileBackend</title>
<path fill="white" stroke="#888888" d="M912.54,-187.31C912.54,-187.31 1055.46,-187.31 1055.46,-187.31 1061.46,-187.31 1067.46,-193.31 1067.46,-199.31 1067.46,-199.31 1067.46,-232.37 1067.46,-232.37 1067.46,-238.37 1061.46,-244.37 1055.46,-244.37 1055.46,-244.37 912.54,-244.37 912.54,-244.37 906.54,-244.37 900.54,-238.37 900.54,-232.37 900.54,-232.37 900.54,-199.31 900.54,-199.31 900.54,-193.31 906.54,-187.31 912.54,-187.31"/>
<text xml:space="preserve" text-anchor="middle" x="984" y="-225.28" font-family="Helvetica,Arial,sans-serif" font-size="11.00">BagOfHoldingH5FileBackend</text>
<polyline fill="none" stroke="#888888" points="900.54,-215.84 1067.46,-215.84"/>
<text xml:space="preserve" text-anchor="start" x="913.5" y="-196.75" font-family="Helvetica,Arial,sans-serif" font-size="11.00">HDF5 via bagofholding</text>
</g>
<!-- FileStorage&#45;&gt;BagOfHoldingH5FileBackend -->
<g id="edge13" class="edge">
<title>FileStorage&#45;&gt;BagOfHoldingH5FileBackend</title>
<path fill="none" stroke="black" d="M945.88,-343.99C945.88,-343.99 945.88,-256.37 945.88,-256.37"/>
<polygon fill="none" stroke="black" points="949.38,-256.37 945.88,-246.37 942.38,-256.37 949.38,-256.37"/>
</g>
<!-- PickleFileBackend&#45;&gt;ValuePickleFile -->
<g id="edge19" class="edge">
<title>PickleFileBackend&#45;&gt;ValuePickleFile</title>
<path fill="none" stroke="black" d="M1133.07,-181.22C1133.07,-181.22 1133.07,-86 1133.07,-86"/>
<polygon fill="none" stroke="black" points="1136.57,-86 1133.07,-76 1129.57,-86 1136.57,-86"/>
</g>
<!-- PickleFileBackend&#45;&gt;CallPickleFile -->
<g id="edge27" class="edge">
<title>PickleFileBackend&#45;&gt;CallPickleFile</title>
<path fill="none" stroke="black" d="M1125.18,-181.42C1125.18,-164.21 1125.18,-147 1125.18,-147 1125.18,-147 681.76,-147 681.76,-147 681.76,-147 681.76,-86.15 681.76,-86.15"/>
<polygon fill="none" stroke="black" points="685.26,-86.15 681.76,-76.15 678.26,-86.15 685.26,-86.15"/>
</g>
<!-- BagOfHoldingH5FileBackend&#45;&gt;ValueBagOfHoldingH5File -->
<g id="edge21" class="edge">
<title>BagOfHoldingH5FileBackend&#45;&gt;ValueBagOfHoldingH5File</title>
<path fill="none" stroke="black" d="M962.15,-186.94C962.15,-186.94 962.15,-86.04 962.15,-86.04"/>
<polygon fill="none" stroke="black" points="965.65,-86.04 962.15,-76.04 958.65,-86.04 965.65,-86.04"/>
</g>
<!-- BagOfHoldingH5FileBackend&#45;&gt;CallBagOfHoldingH5File -->
<g id="edge29" class="edge">
<title>BagOfHoldingH5FileBackend&#45;&gt;CallBagOfHoldingH5File</title>
<path fill="none" stroke="black" d="M931.35,-187.09C931.35,-170.94 931.35,-154 931.35,-154 931.35,-154 550.5,-154 550.5,-154 550.5,-154 550.5,-86.17 550.5,-86.17"/>
<polygon fill="none" stroke="black" points="554,-86.17 550.5,-76.17 547,-86.17 554,-86.17"/>
</g>
</g>
</svg>
